<svg xmlns="http://www.w3.org/2000/svg" width="375" viewBox="0 0 375 375" height="375" version="1.0"><path d="M 359.375 0 C 221.828125 0 153.101562 74.914062 120.085938 110.929688 L 72.449219 158.996094 C 45.871094 185.542969 31.25 220.84375 31.25 258.421875 L 31.25 281.25 L 62.925781 249.574219 C 64.988281 223.699219 75.984375 199.621094 94.484375 181.121094 L 143.128906 132.050781 C 171.816406 100.769531 230.132812 37.164062 343.351562 31.617188 C 339.894531 102.261719 313.839844 151.511719 287.140625 185.546875 L 234.375 203.125 L 272.15625 203.125 C 261.308594 214.945312 251.039062 224.453125 242.949219 231.871094 L 227.628906 247.039062 L 171.875 265.625 L 208.863281 265.625 L 193.910156 280.425781 C 173.253906 301.082031 145.796875 312.46875 116.578125 312.46875 L 84.625 312.46875 L 229.796875 167.296875 L 207.703125 145.203125 L 0 352.90625 L 22.09375 375 L 53.375 343.71875 L 116.578125 343.71875 C 154.140625 343.71875 189.457031 329.085938 216.066406 302.460938 L 264.039062 254.882812 C 300.054688 221.898438 375 153.1875 375 15.625 L 375 0 Z M 359.375 0"/></svg>