<svg xmlns="http://www.w3.org/2000/svg" width="1200" viewBox="0 0 1200 450" height="450" version="1.0"><g><g><g><path d="M 87.152344 -147.515625 L 158.8125 -263.398438 C 161.074219 -266.949219 161.394531 -270.820312 159.78125 -275.339844 C 157.84375 -279.214844 155.261719 -281.472656 151.390625 -281.472656 L 129.761719 -281.472656 C 126.535156 -281.472656 123.953125 -279.859375 122.015625 -276.953125 L 57.457031 -172.371094 C 56.488281 -171.078125 55.519531 -170.757812 54.550781 -171.402344 C 53.261719 -171.402344 52.613281 -172.371094 52.613281 -174.308594 L 52.613281 -269.855469 C 52.613281 -273.082031 51.648438 -275.664062 49.710938 -277.921875 C 47.773438 -280.183594 45.511719 -281.472656 42.929688 -281.472656 L 25.824219 -281.472656 C 22.917969 -281.472656 20.660156 -280.183594 18.722656 -277.921875 C 16.785156 -275.664062 16.140625 -273.082031 16.140625 -269.855469 L 16.140625 -11.621094 C 16.140625 -8.070312 16.785156 -5.164062 18.722656 -3.226562 C 20.660156 -0.96875 22.917969 0 25.824219 0 L 42.929688 0 C 45.511719 0 47.773438 -0.96875 49.710938 -3.226562 C 51.648438 -5.164062 52.613281 -8.070312 52.613281 -11.621094 L 52.613281 -90.382812 C 52.613281 -91.027344 52.613281 -91.671875 52.9375 -91.996094 L 58.425781 -100.710938 C 58.746094 -101.355469 59.394531 -102.003906 60.363281 -102.003906 C 61.007812 -102.003906 61.652344 -101.355469 62.621094 -100.710938 L 122.015625 -4.519531 C 123.953125 -1.292969 126.535156 0 129.761719 0 L 151.390625 0 C 155.261719 0 157.84375 -1.9375 159.78125 -6.132812 C 161.394531 -10.328125 161.074219 -14.203125 158.8125 -18.078125 L 87.152344 -133.957031 C 85.863281 -135.894531 85.539062 -138.15625 85.539062 -140.738281 C 85.539062 -143.320312 85.863281 -145.578125 87.152344 -147.515625 Z M 87.152344 -147.515625" transform="translate(107.94 326.175)"/></g></g></g><g><g><g><path d="M 144.289062 -281.472656 L 126.855469 -281.472656 C 123.953125 -281.472656 121.691406 -280.503906 119.753906 -278.570312 C 117.820312 -276.632812 117.171875 -274.695312 117.171875 -272.113281 L 117.171875 -216.269531 C 117.171875 -213.6875 116.203125 -211.429688 114.269531 -209.492188 C 112.332031 -207.554688 110.394531 -206.910156 107.8125 -206.910156 L 61.976562 -206.910156 C 59.394531 -206.910156 57.132812 -207.554688 55.199219 -209.492188 C 53.261719 -211.429688 52.613281 -213.6875 52.613281 -216.269531 L 52.613281 -272.113281 C 52.613281 -274.695312 51.648438 -276.632812 49.710938 -278.570312 C 47.773438 -280.503906 45.835938 -281.472656 43.253906 -281.472656 L 25.5 -281.472656 C 22.917969 -281.472656 20.660156 -280.503906 18.722656 -278.570312 C 16.785156 -276.632812 16.140625 -274.695312 16.140625 -272.113281 L 16.140625 -9.359375 C 16.140625 -6.777344 16.785156 -4.519531 18.722656 -2.582031 C 20.660156 -0.644531 22.917969 0 25.5 0 L 43.253906 0 C 45.835938 0 47.773438 -0.644531 49.710938 -2.582031 C 51.648438 -4.519531 52.613281 -6.777344 52.613281 -9.359375 L 52.613281 -161.074219 C 52.613281 -163.65625 53.261719 -165.59375 55.199219 -167.527344 C 57.132812 -169.464844 59.394531 -170.433594 61.976562 -170.433594 L 107.8125 -170.433594 C 110.394531 -170.433594 112.332031 -169.464844 114.269531 -167.527344 C 116.203125 -165.59375 117.171875 -163.65625 117.171875 -161.074219 L 117.171875 -9.359375 C 117.171875 -6.777344 117.820312 -4.519531 119.753906 -2.582031 C 121.691406 -0.644531 123.953125 0 126.855469 0 L 144.289062 0 C 146.871094 0 148.808594 -0.644531 150.742188 -2.582031 C 152.679688 -4.519531 153.648438 -6.777344 153.648438 -9.359375 L 153.648438 -272.113281 C 153.648438 -274.695312 152.679688 -276.632812 150.742188 -278.570312 C 148.808594 -280.503906 146.871094 -281.472656 144.289062 -281.472656 Z M 144.289062 -281.472656" transform="translate(306.126 326.175)"/></g></g></g><g><g><g><path d="M 138.476562 -8.390625 C 139.125 -5.808594 140.089844 -3.875 141.707031 -2.257812 C 143.320312 -0.644531 145.257812 0 147.515625 0 L 165.914062 0 C 168.820312 0 171.402344 -1.292969 173.339844 -4.195312 C 175.277344 -7.101562 175.597656 -10.328125 174.953125 -14.203125 C 173.339844 -20.660156 172.046875 -25.824219 171.402344 -29.375 C 170.757812 -32.925781 170.109375 -36.152344 169.464844 -39.058594 C 168.820312 -41.640625 167.851562 -44.867188 167.207031 -48.097656 C 166.558594 -51.324219 165.269531 -55.84375 163.976562 -61.976562 C 162.6875 -67.785156 160.75 -75.855469 158.492188 -85.863281 C 156.230469 -95.867188 153.324219 -109.101562 149.773438 -125.566406 C 145.902344 -142.027344 141.382812 -162.363281 135.894531 -186.25 C 130.40625 -210.136719 123.953125 -238.867188 116.527344 -273.082031 C 115.882812 -275.339844 114.914062 -277.277344 113.300781 -278.890625 C 111.363281 -280.503906 109.425781 -281.472656 107.488281 -281.472656 L 84.25 -281.472656 C 81.988281 -281.472656 80.050781 -280.503906 78.4375 -278.890625 C 76.5 -277.277344 75.53125 -275.339844 75.210938 -273.082031 C 73.273438 -265.980469 71.015625 -255.972656 68.109375 -243.0625 C 65.203125 -230.148438 61.976562 -215.625 58.425781 -199.484375 C 54.875 -183.34375 51 -166.558594 47.128906 -148.808594 C 43.253906 -131.054688 39.378906 -113.945312 35.507812 -97.160156 C 31.632812 -80.375 28.082031 -64.558594 24.855469 -50.03125 C 21.628906 -35.507812 18.722656 -23.5625 16.785156 -14.203125 C 15.816406 -10.328125 16.460938 -7.101562 18.398438 -4.195312 C 20.335938 -1.292969 22.59375 0 25.824219 0 L 44.222656 0 C 46.160156 0 48.097656 -0.644531 49.710938 -2.257812 C 51.324219 -3.875 52.613281 -5.808594 53.261719 -8.390625 C 55.199219 -16.785156 57.78125 -28.082031 60.683594 -41.960938 C 61.332031 -44.222656 62.296875 -46.160156 63.914062 -47.773438 C 65.527344 -49.386719 67.464844 -50.355469 70.046875 -50.355469 L 121.691406 -50.355469 C 123.953125 -50.355469 125.886719 -49.386719 127.503906 -47.773438 C 129.117188 -46.160156 130.40625 -44.222656 131.054688 -41.960938 C 132.988281 -32.925781 134.28125 -25.824219 135.574219 -20.660156 C 136.863281 -15.492188 137.832031 -11.296875 138.476562 -8.390625 Z M 107.167969 -93.609375 L 84.570312 -93.609375 C 81.34375 -93.609375 79.082031 -94.902344 77.148438 -97.804688 C 75.210938 -100.710938 74.566406 -103.9375 75.53125 -107.8125 C 77.46875 -115.882812 79.082031 -123.953125 81.019531 -132.34375 C 82.957031 -140.414062 84.894531 -148.808594 86.832031 -157.199219 C 87.476562 -159.78125 88.445312 -162.042969 90.382812 -163.332031 C 91.996094 -164.625 93.933594 -165.269531 95.867188 -165.269531 C 97.804688 -165.269531 99.417969 -164.625 101.355469 -163.332031 C 102.96875 -162.042969 104.261719 -159.78125 104.90625 -157.199219 C 106.84375 -147.515625 108.78125 -138.800781 110.71875 -130.730469 C 112.652344 -122.339844 114.269531 -114.914062 116.203125 -107.8125 C 116.851562 -103.9375 116.527344 -100.710938 114.589844 -97.804688 C 112.652344 -94.902344 110.070312 -93.609375 107.167969 -93.609375 Z M 107.167969 -93.609375" transform="translate(496.887 326.175)"/></g></g></g><g><g><g><path d="M 144.289062 -281.472656 L 126.855469 -281.472656 C 124.273438 -281.472656 122.015625 -280.503906 120.078125 -278.570312 C 118.140625 -276.632812 117.171875 -274.695312 117.171875 -272.113281 L 117.171875 -67.785156 C 117.171875 -58.746094 113.945312 -51.324219 108.136719 -45.511719 C 102.003906 -39.378906 94.578125 -36.476562 85.863281 -36.476562 C 81.34375 -36.476562 76.824219 -37.121094 72.949219 -39.058594 C 68.753906 -40.671875 65.203125 -42.929688 62.296875 -46.160156 C 59.070312 -49.0625 56.8125 -52.613281 55.199219 -56.8125 C 53.261719 -60.683594 52.613281 -65.203125 52.613281 -69.722656 L 52.613281 -272.113281 C 52.613281 -274.695312 51.648438 -276.632812 49.710938 -278.570312 C 47.773438 -280.503906 45.511719 -281.472656 42.929688 -281.472656 L 25.5 -281.472656 C 22.917969 -281.472656 20.660156 -280.503906 18.722656 -278.570312 C 16.785156 -276.632812 16.140625 -274.695312 16.140625 -272.113281 L 16.140625 -68.753906 C 16.140625 -59.070312 17.753906 -50.355469 21.628906 -41.960938 C 25.175781 -33.570312 30.019531 -26.46875 36.476562 -20.335938 C 42.609375 -13.878906 49.710938 -9.039062 58.101562 -5.488281 C 66.496094 -1.613281 75.210938 0 84.894531 0 C 94.253906 0 103.292969 -1.613281 111.6875 -5.164062 C 120.078125 -8.714844 127.179688 -13.558594 133.636719 -20.011719 C 139.769531 -26.144531 144.609375 -33.570312 148.160156 -41.960938 C 151.710938 -50.355469 153.648438 -59.070312 153.648438 -68.753906 L 153.648438 -272.113281 C 153.648438 -274.695312 152.679688 -276.632812 150.742188 -278.570312 C 148.808594 -280.503906 146.871094 -281.472656 144.289062 -281.472656 Z M 144.289062 -281.472656" transform="translate(709.597 326.175)"/></g></g></g><g><g><g><path d="M 138.476562 -8.390625 C 139.125 -5.808594 140.089844 -3.875 141.707031 -2.257812 C 143.320312 -0.644531 145.257812 0 147.515625 0 L 165.914062 0 C 168.820312 0 171.402344 -1.292969 173.339844 -4.195312 C 175.277344 -7.101562 175.597656 -10.328125 174.953125 -14.203125 C 173.339844 -20.660156 172.046875 -25.824219 171.402344 -29.375 C 170.757812 -32.925781 170.109375 -36.152344 169.464844 -39.058594 C 168.820312 -41.640625 167.851562 -44.867188 167.207031 -48.097656 C 166.558594 -51.324219 165.269531 -55.84375 163.976562 -61.976562 C 162.6875 -67.785156 160.75 -75.855469 158.492188 -85.863281 C 156.230469 -95.867188 153.324219 -109.101562 149.773438 -125.566406 C 145.902344 -142.027344 141.382812 -162.363281 135.894531 -186.25 C 130.40625 -210.136719 123.953125 -238.867188 116.527344 -273.082031 C 115.882812 -275.339844 114.914062 -277.277344 113.300781 -278.890625 C 111.363281 -280.503906 109.425781 -281.472656 107.488281 -281.472656 L 84.25 -281.472656 C 81.988281 -281.472656 80.050781 -280.503906 78.4375 -278.890625 C 76.5 -277.277344 75.53125 -275.339844 75.210938 -273.082031 C 73.273438 -265.980469 71.015625 -255.972656 68.109375 -243.0625 C 65.203125 -230.148438 61.976562 -215.625 58.425781 -199.484375 C 54.875 -183.34375 51 -166.558594 47.128906 -148.808594 C 43.253906 -131.054688 39.378906 -113.945312 35.507812 -97.160156 C 31.632812 -80.375 28.082031 -64.558594 24.855469 -50.03125 C 21.628906 -35.507812 18.722656 -23.5625 16.785156 -14.203125 C 15.816406 -10.328125 16.460938 -7.101562 18.398438 -4.195312 C 20.335938 -1.292969 22.59375 0 25.824219 0 L 44.222656 0 C 46.160156 0 48.097656 -0.644531 49.710938 -2.257812 C 51.324219 -3.875 52.613281 -5.808594 53.261719 -8.390625 C 55.199219 -16.785156 57.78125 -28.082031 60.683594 -41.960938 C 61.332031 -44.222656 62.296875 -46.160156 63.914062 -47.773438 C 65.527344 -49.386719 67.464844 -50.355469 70.046875 -50.355469 L 121.691406 -50.355469 C 123.953125 -50.355469 125.886719 -49.386719 127.503906 -47.773438 C 129.117188 -46.160156 130.40625 -44.222656 131.054688 -41.960938 C 132.988281 -32.925781 134.28125 -25.824219 135.574219 -20.660156 C 136.863281 -15.492188 137.832031 -11.296875 138.476562 -8.390625 Z M 107.167969 -93.609375 L 84.570312 -93.609375 C 81.34375 -93.609375 79.082031 -94.902344 77.148438 -97.804688 C 75.210938 -100.710938 74.566406 -103.9375 75.53125 -107.8125 C 77.46875 -115.882812 79.082031 -123.953125 81.019531 -132.34375 C 82.957031 -140.414062 84.894531 -148.808594 86.832031 -157.199219 C 87.476562 -159.78125 88.445312 -162.042969 90.382812 -163.332031 C 91.996094 -164.625 93.933594 -165.269531 95.867188 -165.269531 C 97.804688 -165.269531 99.417969 -164.625 101.355469 -163.332031 C 102.96875 -162.042969 104.261719 -159.78125 104.90625 -157.199219 C 106.84375 -147.515625 108.78125 -138.800781 110.71875 -130.730469 C 112.652344 -122.339844 114.269531 -114.914062 116.203125 -107.8125 C 116.851562 -103.9375 116.527344 -100.710938 114.589844 -97.804688 C 112.652344 -94.902344 110.070312 -93.609375 107.167969 -93.609375 Z M 107.167969 -93.609375" transform="translate(900.358 326.175)"/></g></g></g><g><g><g><path d="M 53.820312 -2.472656 L 66.015625 -70.707031 C 66.015625 -71.132812 66.015625 -71.558594 65.929688 -72.070312 C 65.847656 -72.5 65.675781 -72.925781 65.503906 -73.265625 C 64.90625 -73.949219 64.226562 -74.375 63.457031 -74.375 L 58.851562 -74.375 C 58.167969 -74.375 57.65625 -74.121094 57.230469 -73.691406 C 56.71875 -73.179688 56.464844 -72.582031 56.378906 -71.902344 L 49.128906 -31.472656 C 49.042969 -31.046875 48.789062 -30.875 48.445312 -30.875 C 47.933594 -30.875 47.765625 -31.046875 47.765625 -31.472656 C 46.570312 -37.871094 45.632812 -43.074219 44.949219 -47.167969 C 44.179688 -51.261719 43.585938 -54.5 43.15625 -56.976562 C 42.730469 -59.449219 42.390625 -61.324219 42.21875 -62.605469 C 41.964844 -63.882812 41.792969 -64.90625 41.621094 -65.761719 C 41.453125 -66.613281 41.28125 -67.382812 41.109375 -68.234375 C 40.941406 -69.085938 40.769531 -70.28125 40.515625 -71.902344 C 40.34375 -72.582031 40.085938 -73.179688 39.574219 -73.691406 C 39.0625 -74.121094 38.550781 -74.375 37.957031 -74.375 L 32.324219 -74.375 C 31.644531 -74.375 31.132812 -74.121094 30.621094 -73.691406 C 30.109375 -73.179688 29.851562 -72.582031 29.765625 -71.902344 L 22.601562 -31.472656 C 22.515625 -31.046875 22.261719 -30.875 21.835938 -30.875 C 21.410156 -30.875 21.152344 -31.046875 21.152344 -31.472656 L 13.902344 -71.902344 C 13.730469 -72.582031 13.476562 -73.179688 13.050781 -73.691406 C 12.539062 -74.121094 12.027344 -74.375 11.429688 -74.375 L 6.824219 -74.375 C 5.96875 -74.375 5.289062 -73.949219 4.863281 -73.265625 C 4.351562 -72.582031 4.179688 -71.644531 4.351562 -70.621094 L 16.546875 -2.472656 C 16.632812 -1.707031 16.886719 -1.109375 17.398438 -0.683594 C 17.824219 -0.171875 18.339844 0 19.019531 0 L 24.734375 0 C 25.332031 0 25.84375 -0.171875 26.355469 -0.683594 C 26.78125 -1.109375 27.039062 -1.707031 27.207031 -2.472656 L 35.140625 -46.910156 L 43.074219 -2.472656 C 43.15625 -1.707031 43.414062 -1.109375 43.925781 -0.683594 C 44.4375 -0.171875 44.949219 0 45.632812 0 L 51.261719 0 C 51.859375 0 52.371094 -0.171875 52.882812 -0.683594 C 53.394531 -1.109375 53.648438 -1.707031 53.820312 -2.472656 Z M 53.820312 -2.472656" transform="translate(210.284 425.014)"/></g></g></g><g><g><g><path d="M 16.375 -64.738281 L 32.496094 -64.738281 C 33.179688 -64.738281 33.691406 -64.90625 34.203125 -65.417969 C 34.714844 -65.929688 34.96875 -66.527344 34.96875 -67.210938 L 34.96875 -71.902344 C 34.96875 -72.582031 34.714844 -73.097656 34.203125 -73.609375 C 33.691406 -74.121094 33.179688 -74.375 32.496094 -74.375 L 6.738281 -74.375 C 6.054688 -74.375 5.457031 -74.121094 4.945312 -73.609375 C 4.433594 -73.097656 4.265625 -72.582031 4.265625 -71.902344 L 4.265625 -2.472656 C 4.265625 -1.792969 4.433594 -1.195312 4.945312 -0.683594 C 5.457031 -0.171875 6.054688 0 6.738281 0 L 32.496094 0 C 33.179688 0 33.691406 -0.171875 34.203125 -0.683594 C 34.714844 -1.195312 34.96875 -1.792969 34.96875 -2.472656 L 34.96875 -7.164062 C 34.96875 -7.847656 34.714844 -8.359375 34.203125 -8.871094 C 33.691406 -9.382812 33.179688 -9.636719 32.496094 -9.636719 L 16.375 -9.636719 C 15.695312 -9.636719 15.097656 -9.808594 14.585938 -10.320312 C 14.074219 -10.832031 13.902344 -11.429688 13.902344 -12.113281 L 13.902344 -42.5625 C 13.902344 -43.242188 14.074219 -43.753906 14.585938 -44.265625 C 15.097656 -44.777344 15.695312 -45.035156 16.375 -45.035156 L 27.039062 -45.035156 C 27.71875 -45.035156 28.316406 -45.289062 28.828125 -45.800781 C 29.339844 -46.3125 29.597656 -46.910156 29.597656 -47.59375 L 29.597656 -52.199219 C 29.597656 -52.882812 29.339844 -53.394531 28.828125 -53.90625 C 28.316406 -54.417969 27.71875 -54.671875 27.039062 -54.671875 L 16.375 -54.671875 C 15.695312 -54.671875 15.097656 -54.84375 14.585938 -55.355469 C 14.074219 -55.867188 13.902344 -56.464844 13.902344 -57.144531 L 13.902344 -62.261719 C 13.902344 -62.945312 14.074219 -63.457031 14.585938 -63.96875 C 15.097656 -64.480469 15.695312 -64.738281 16.375 -64.738281 Z M 16.375 -64.738281" transform="translate(319.197 425.014)"/></g></g></g><g><g><g><path d="M 6.738281 0 L 25.585938 0 C 28.660156 0 31.386719 -0.683594 33.777344 -2.046875 C 36.078125 -3.410156 37.957031 -5.289062 39.492188 -7.503906 C 40.941406 -9.722656 41.964844 -12.195312 42.644531 -15.011719 C 43.242188 -17.824219 43.414062 -20.640625 43.242188 -23.539062 C 42.988281 -26.355469 42.304688 -29.085938 41.28125 -31.730469 C 40.257812 -34.371094 38.808594 -36.589844 36.933594 -38.46875 C 36.417969 -38.808594 36.164062 -39.320312 36.078125 -40.003906 C 35.90625 -40.683594 35.992188 -41.28125 36.335938 -41.964844 C 37.1875 -44.011719 37.871094 -46.3125 38.210938 -48.789062 C 38.550781 -51.175781 38.550781 -53.648438 38.296875 -56.039062 C 38.039062 -58.425781 37.445312 -60.726562 36.589844 -62.945312 C 35.738281 -65.164062 34.542969 -67.125 33.09375 -68.832031 C 31.558594 -70.535156 29.851562 -71.816406 27.804688 -72.839844 C 25.757812 -73.863281 23.371094 -74.375 20.726562 -74.375 L 6.738281 -74.375 C 6.054688 -74.375 5.457031 -74.035156 4.945312 -73.4375 C 4.433594 -72.839844 4.265625 -72.15625 4.265625 -71.390625 L 4.265625 -2.898438 C 4.265625 -2.046875 4.433594 -1.363281 4.945312 -0.851562 C 5.457031 -0.257812 6.054688 0 6.738281 0 Z M 16.375 -64.566406 L 20.898438 -64.566406 C 22.6875 -64.566406 24.222656 -63.96875 25.417969 -62.859375 C 26.609375 -61.75 27.464844 -60.386719 28.0625 -58.679688 C 28.660156 -56.976562 29 -55.183594 29 -53.308594 C 29 -51.347656 28.660156 -49.554688 28.0625 -47.847656 C 27.378906 -46.144531 26.527344 -44.777344 25.332031 -43.667969 C 24.136719 -42.5625 22.601562 -42.050781 20.898438 -42.050781 L 16.375 -42.050781 C 15.695312 -42.050781 15.097656 -42.304688 14.585938 -42.902344 C 14.074219 -43.5 13.902344 -44.179688 13.902344 -45.035156 L 13.902344 -61.667969 C 13.902344 -62.433594 14.074219 -63.117188 14.585938 -63.714844 C 15.097656 -64.226562 15.695312 -64.566406 16.375 -64.566406 Z M 16.375 -32.324219 L 25.757812 -32.324219 C 27.550781 -32.324219 29.085938 -31.730469 30.277344 -30.621094 C 31.472656 -29.511719 32.324219 -28.148438 32.921875 -26.441406 C 33.519531 -24.734375 33.777344 -22.945312 33.777344 -20.980469 C 33.777344 -19.019531 33.433594 -17.230469 32.835938 -15.523438 C 32.242188 -13.816406 31.386719 -12.453125 30.195312 -11.34375 C 29 -10.234375 27.464844 -9.722656 25.757812 -9.722656 L 16.375 -9.722656 C 15.695312 -9.722656 15.097656 -9.980469 14.585938 -10.578125 C 14.074219 -11.171875 13.902344 -11.855469 13.902344 -12.707031 L 13.902344 -29.339844 C 13.902344 -30.109375 14.074219 -30.789062 14.585938 -31.386719 C 15.097656 -31.984375 15.695312 -32.324219 16.375 -32.324219 Z M 16.375 -32.324219" transform="translate(396.98 425.014)"/></g></g></g><g><g><g><path d="M 34.457031 -56.121094 C 34.457031 -61.921875 33.179688 -66.359375 30.707031 -69.597656 C 28.148438 -72.753906 24.480469 -74.375 19.53125 -74.375 C 14.5 -74.375 10.746094 -72.753906 8.273438 -69.597656 C 5.714844 -66.359375 4.519531 -61.921875 4.519531 -56.121094 C 4.519531 -53.988281 4.691406 -52.027344 5.03125 -50.152344 C 5.375 -48.277344 6.054688 -46.484375 6.910156 -44.691406 C 7.761719 -42.902344 8.957031 -41.109375 10.40625 -39.234375 C 11.769531 -37.359375 13.5625 -35.394531 15.695312 -33.347656 C 17.3125 -31.644531 18.679688 -30.195312 19.789062 -28.828125 C 20.898438 -27.464844 21.835938 -26.183594 22.515625 -24.992188 C 23.199219 -23.710938 23.625 -22.515625 23.96875 -21.324219 C 24.222656 -20.128906 24.394531 -18.851562 24.394531 -17.570312 C 24.394531 -14.925781 23.882812 -13.050781 22.945312 -12.027344 C 22.003906 -10.917969 20.726562 -10.40625 19.105469 -10.40625 C 17.398438 -10.40625 16.121094 -10.917969 15.265625 -12.027344 C 14.328125 -13.050781 13.902344 -14.925781 13.902344 -17.570312 L 13.902344 -20.46875 C 13.902344 -21.066406 13.648438 -21.578125 13.304688 -22.003906 C 12.878906 -22.433594 12.453125 -22.6875 11.941406 -22.6875 L 6.140625 -22.6875 C 5.628906 -22.6875 5.117188 -22.433594 4.777344 -22.003906 C 4.433594 -21.578125 4.265625 -21.066406 4.265625 -20.46875 L 4.265625 -18.253906 C 4.265625 -12.367188 5.542969 -7.847656 8.101562 -4.691406 C 10.660156 -1.535156 14.414062 0 19.445312 0 C 24.394531 0 28.148438 -1.535156 30.707031 -4.691406 C 33.265625 -7.847656 34.542969 -12.367188 34.542969 -18.253906 C 34.542969 -20.300781 34.289062 -22.261719 33.945312 -24.136719 C 33.605469 -26.015625 33.007812 -27.804688 32.15625 -29.597656 C 31.300781 -31.386719 30.109375 -33.179688 28.660156 -35.054688 C 27.207031 -36.933594 25.417969 -38.894531 23.371094 -41.027344 C 21.664062 -42.644531 20.300781 -44.097656 19.191406 -45.460938 C 18.082031 -46.824219 17.230469 -48.105469 16.546875 -49.382812 C 15.863281 -50.578125 15.351562 -51.859375 15.097656 -53.050781 C 14.753906 -54.246094 14.671875 -55.441406 14.671875 -56.804688 C 14.671875 -59.363281 15.097656 -61.238281 15.949219 -62.347656 C 16.800781 -63.457031 18.082031 -64.054688 19.789062 -64.054688 C 21.410156 -64.054688 22.6875 -63.457031 23.539062 -62.347656 C 24.394531 -61.238281 24.820312 -59.363281 24.820312 -56.804688 L 24.820312 -56.121094 C 24.820312 -55.441406 24.992188 -54.84375 25.332031 -54.417969 C 25.671875 -53.90625 26.183594 -53.734375 26.78125 -53.734375 L 32.496094 -53.734375 C 33.007812 -53.734375 33.519531 -53.90625 33.859375 -54.417969 C 34.203125 -54.84375 34.457031 -55.441406 34.457031 -56.121094 Z M 34.457031 -56.121094" transform="translate(547.261 425.014)"/></g></g></g><g><g><g><path d="M 39.492188 -67.210938 L 39.492188 -71.902344 C 39.492188 -72.582031 39.234375 -73.097656 38.722656 -73.609375 C 38.210938 -74.121094 37.613281 -74.375 36.933594 -74.375 L 6.738281 -74.375 C 6.054688 -74.375 5.457031 -74.121094 4.945312 -73.609375 C 4.433594 -73.097656 4.265625 -72.582031 4.265625 -71.902344 L 4.265625 -67.210938 C 4.265625 -66.527344 4.433594 -65.929688 4.945312 -65.417969 C 5.457031 -64.90625 6.054688 -64.738281 6.738281 -64.738281 L 14.585938 -64.738281 C 15.265625 -64.738281 15.777344 -64.480469 16.289062 -63.96875 C 16.800781 -63.457031 17.058594 -62.945312 17.058594 -62.261719 L 17.058594 -2.472656 C 17.058594 -1.792969 17.230469 -1.195312 17.742188 -0.683594 C 18.253906 -0.171875 18.851562 0 19.53125 0 L 24.136719 0 C 24.820312 0 25.417969 -0.171875 25.929688 -0.683594 C 26.441406 -1.195312 26.695312 -1.792969 26.695312 -2.472656 L 26.695312 -62.261719 C 26.695312 -62.945312 26.867188 -63.457031 27.378906 -63.96875 C 27.890625 -64.480469 28.488281 -64.738281 29.171875 -64.738281 L 36.933594 -64.738281 C 37.613281 -64.738281 38.210938 -64.90625 38.722656 -65.417969 C 39.234375 -65.929688 39.492188 -66.527344 39.492188 -67.210938 Z M 39.492188 -67.210938" transform="translate(624.618 425.014)"/></g></g></g><g><g><g><path d="M 38.125 -74.375 L 33.519531 -74.375 C 32.835938 -74.375 32.242188 -74.121094 31.730469 -73.609375 C 31.21875 -73.097656 30.960938 -72.582031 30.960938 -71.902344 L 30.960938 -17.910156 C 30.960938 -15.523438 30.109375 -13.5625 28.574219 -12.027344 C 26.953125 -10.40625 24.992188 -9.636719 22.6875 -9.636719 C 21.492188 -9.636719 20.300781 -9.808594 19.277344 -10.320312 C 18.167969 -10.746094 17.230469 -11.34375 16.460938 -12.195312 C 15.609375 -12.964844 15.011719 -13.902344 14.585938 -15.011719 C 14.074219 -16.035156 13.902344 -17.230469 13.902344 -18.421875 L 13.902344 -71.902344 C 13.902344 -72.582031 13.648438 -73.097656 13.136719 -73.609375 C 12.625 -74.121094 12.027344 -74.375 11.34375 -74.375 L 6.738281 -74.375 C 6.054688 -74.375 5.457031 -74.121094 4.945312 -73.609375 C 4.433594 -73.097656 4.265625 -72.582031 4.265625 -71.902344 L 4.265625 -18.167969 C 4.265625 -15.609375 4.691406 -13.304688 5.714844 -11.089844 C 6.652344 -8.871094 7.933594 -6.992188 9.636719 -5.375 C 11.257812 -3.667969 13.136719 -2.386719 15.351562 -1.449219 C 17.570312 -0.425781 19.875 0 22.433594 0 C 24.90625 0 27.292969 -0.425781 29.511719 -1.363281 C 31.730469 -2.304688 33.605469 -3.582031 35.3125 -5.289062 C 36.933594 -6.910156 38.210938 -8.871094 39.148438 -11.089844 C 40.085938 -13.304688 40.597656 -15.609375 40.597656 -18.167969 L 40.597656 -71.902344 C 40.597656 -72.582031 40.34375 -73.097656 39.832031 -73.609375 C 39.320312 -74.121094 38.808594 -74.375 38.125 -74.375 Z M 38.125 -74.375" transform="translate(706.923 425.014)"/></g></g></g><g><g><g><path d="M 43.839844 -37.273438 C 43.839844 -42.390625 43.074219 -47.167969 41.707031 -51.6875 C 40.34375 -56.121094 38.296875 -60.046875 35.738281 -63.457031 C 33.179688 -66.871094 30.023438 -69.511719 26.355469 -71.476562 C 22.601562 -73.351562 18.507812 -74.375 13.902344 -74.375 L 6.738281 -74.375 C 6.054688 -74.375 5.457031 -74.035156 4.945312 -73.4375 C 4.433594 -72.839844 4.265625 -72.15625 4.265625 -71.390625 L 4.265625 -2.898438 C 4.265625 -2.046875 4.433594 -1.363281 4.945312 -0.851562 C 5.457031 -0.257812 6.054688 0 6.738281 0 L 13.902344 0 C 18.507812 0 22.601562 -0.9375 26.355469 -2.898438 C 30.023438 -4.863281 33.179688 -7.503906 35.738281 -10.917969 C 38.296875 -14.242188 40.34375 -18.167969 41.707031 -22.773438 C 43.074219 -27.292969 43.839844 -32.15625 43.839844 -37.273438 Z M 16.71875 -11.683594 C 15.863281 -11.515625 15.183594 -11.769531 14.671875 -12.367188 C 14.160156 -12.878906 13.902344 -13.648438 13.902344 -14.585938 L 13.902344 -59.875 C 13.902344 -60.726562 14.160156 -61.410156 14.671875 -62.007812 C 15.183594 -62.605469 15.863281 -62.859375 16.71875 -62.773438 C 19.445312 -62.347656 21.835938 -61.410156 23.96875 -59.960938 C 26.015625 -58.425781 27.804688 -56.550781 29.253906 -54.332031 C 30.621094 -52.027344 31.730469 -49.382812 32.410156 -46.484375 C 33.09375 -43.585938 33.519531 -40.515625 33.519531 -37.273438 C 33.519531 -33.945312 33.09375 -30.789062 32.410156 -27.890625 C 31.730469 -24.992188 30.621094 -22.347656 29.253906 -20.128906 C 27.804688 -17.824219 26.015625 -15.949219 23.96875 -14.5 C 21.835938 -12.964844 19.445312 -12.027344 16.71875 -11.683594 Z M 16.71875 -11.683594" transform="translate(790.335 425.014)"/></g></g></g><g><g><g><path d="M 13.902344 -2.472656 L 13.902344 -71.902344 C 13.902344 -72.582031 13.648438 -73.097656 13.136719 -73.609375 C 12.625 -74.121094 12.113281 -74.375 11.429688 -74.375 L 6.738281 -74.375 C 6.054688 -74.375 5.457031 -74.121094 4.945312 -73.609375 C 4.433594 -73.097656 4.265625 -72.582031 4.265625 -71.902344 L 4.265625 -2.472656 C 4.265625 -1.792969 4.433594 -1.195312 4.945312 -0.683594 C 5.457031 -0.171875 6.054688 0 6.738281 0 L 11.429688 0 C 12.113281 0 12.625 -0.171875 13.136719 -0.683594 C 13.648438 -1.195312 13.902344 -1.792969 13.902344 -2.472656 Z M 13.902344 -2.472656" transform="translate(876.989 425.014)"/></g></g></g><g><g><g><path d="M 9.636719 -11.769531 C 11.769531 -7.847656 14.414062 -4.945312 17.484375 -2.984375 C 20.554688 -0.9375 24.050781 0 27.976562 0 C 31.898438 0 35.394531 -0.9375 38.46875 -2.984375 C 41.539062 -4.945312 44.097656 -7.847656 46.3125 -11.769531 C 48.019531 -15.011719 49.382812 -18.765625 50.324219 -23.027344 C 51.175781 -27.292969 51.6875 -31.984375 51.6875 -37.101562 C 51.6875 -42.21875 51.175781 -46.910156 50.324219 -51.175781 C 49.382812 -55.441406 48.019531 -59.277344 46.3125 -62.519531 C 41.964844 -70.367188 35.824219 -74.375 27.976562 -74.375 C 20.042969 -74.375 13.902344 -70.367188 9.636719 -62.519531 C 7.847656 -59.277344 6.480469 -55.441406 5.628906 -51.175781 C 4.691406 -46.910156 4.265625 -42.21875 4.265625 -37.101562 C 4.265625 -31.984375 4.691406 -27.292969 5.628906 -23.027344 C 6.480469 -18.765625 7.847656 -15.011719 9.636719 -11.769531 Z M 13.902344 -37.101562 C 13.902344 -38.125 13.902344 -39.492188 13.988281 -41.28125 C 14.074219 -43.074219 14.242188 -45.035156 14.585938 -47.082031 C 14.925781 -49.128906 15.351562 -51.175781 16.035156 -53.394531 C 16.632812 -55.527344 17.484375 -57.488281 18.507812 -59.191406 C 19.53125 -60.898438 20.898438 -62.261719 22.433594 -63.371094 C 23.96875 -64.480469 25.757812 -65.078125 27.976562 -65.078125 C 30.109375 -65.078125 31.984375 -64.480469 33.519531 -63.371094 C 35.054688 -62.261719 36.335938 -60.898438 37.359375 -59.191406 C 38.382812 -57.488281 39.234375 -55.527344 39.917969 -53.394531 C 40.515625 -51.175781 40.941406 -49.128906 41.28125 -47.082031 C 41.621094 -45.035156 41.792969 -43.074219 41.878906 -41.28125 C 41.964844 -39.492188 42.050781 -38.125 42.050781 -37.101562 C 42.050781 -36.078125 41.964844 -34.628906 41.878906 -32.921875 C 41.792969 -31.21875 41.621094 -29.253906 41.28125 -27.207031 C 40.941406 -25.160156 40.515625 -23.027344 39.917969 -20.898438 C 39.234375 -18.765625 38.382812 -16.886719 37.359375 -15.183594 C 36.335938 -13.476562 35.054688 -12.027344 33.519531 -10.917969 C 31.984375 -9.808594 30.109375 -9.296875 27.976562 -9.296875 C 25.757812 -9.296875 23.96875 -9.808594 22.433594 -10.917969 C 20.898438 -12.027344 19.53125 -13.476562 18.507812 -15.183594 C 17.484375 -16.886719 16.632812 -18.765625 16.035156 -20.898438 C 15.351562 -23.027344 14.925781 -25.160156 14.585938 -27.207031 C 14.242188 -29.253906 14.074219 -31.21875 13.988281 -32.921875 C 13.902344 -34.628906 13.902344 -36.078125 13.902344 -37.101562 Z M 13.902344 -37.101562" transform="translate(933.707 425.014)"/></g></g></g></svg>